<svg xmlns="http://www.w3.org/2000/svg" xmlns:xlink="http://www.w3.org/1999/xlink" preserveAspectRatio="xMidYMid" width="51" height="36" viewBox="0 0 51 36">
  <defs>
    <style>
      .cls-1 {
        fill: #323232;
        fill-opacity: 0.43;
        fill-rule: evenodd;
      }
    </style>
  </defs>
  <path d="M49.000,4.000 L2.000,4.000 C0.895,4.000 -0.000,3.105 -0.000,2.000 C-0.000,0.895 0.895,0.000 2.000,0.000 L49.000,0.000 C50.105,0.000 51.000,0.895 51.000,2.000 C51.000,3.105 50.105,4.000 49.000,4.000 ZM2.000,16.000 L39.000,16.000 C40.105,16.000 41.000,16.896 41.000,18.000 C41.000,19.105 40.105,20.000 39.000,20.000 L2.000,20.000 C0.896,20.000 0.000,19.105 0.000,18.000 C0.000,16.896 0.896,16.000 2.000,16.000 ZM2.000,32.000 L49.000,32.000 C50.105,32.000 51.000,32.895 51.000,34.000 C51.000,35.104 50.105,36.000 49.000,36.000 L2.000,36.000 C0.895,36.000 0.000,35.104 0.000,34.000 C0.000,32.895 0.895,32.000 2.000,32.000 Z" class="cls-1"/>
</svg>
