<?xml version="1.0" encoding="UTF-8"?><!DOCTYPE svg PUBLIC "-//W3C//DTD SVG 1.1//EN" "http://www.w3.org/Graphics/SVG/1.1/DTD/svg11.dtd"><svg xmlns="http://www.w3.org/2000/svg"><defs><style>.cls-1{fill:#a2a2a2;fill-rule:evenodd}</style><style>.cls-1{fill:#323232;fill-opacity:.43;fill-rule:evenodd}</style><style>.cls-1{fill:#322c59;fill-rule:evenodd}</style></defs><symbol id="icon-close" viewBox="0 0 37.219 37.91"><path d="M21.785 18.94l14.85 14.849a2 2 0 1 1-2.829 2.828L18.957 21.768 3.401 37.325a2 2 0 0 1-2.829-2.829L16.129 18.94.572 3.384A2 2 0 0 1 3.401.555l15.556 15.557 14.849-14.85a2 2 0 0 1 2.829 2.829L21.785 18.94z" class="cls-1"/></symbol><symbol id="icon-menu" viewBox="0 0 51 36"><path d="M49 4H2a2 2 0 1 1 0-4h47a2 2 0 1 1 0 4zM2 16h37a2 2 0 0 1 0 4H2a2 2 0 0 1 0-4zm0 16h47a2 2 0 1 1 0 4H2a2 2 0 0 1 0-4z" class="cls-1"/></symbol><symbol id="icon-search" viewBox="0 0 30 30"><path d="M29.357 26.061l-7.049-7.402a12.11 12.11 0 0 0 1.904-6.531c0-6.704-5.419-12.137-12.105-12.137C5.421-.009.002 5.424.002 12.128c0 6.701 5.419 12.136 12.105 12.136 2.615 0 5.032-.834 7.012-2.245l6.895 7.241a2.305 2.305 0 0 0 3.267.077c.922-.883.957-2.35.076-3.276zM3.718 12.128c0-4.646 3.755-8.411 8.389-8.411 4.634 0 8.389 3.765 8.389 8.411 0 4.644-3.755 8.41-8.389 8.41-4.634 0-8.389-3.766-8.389-8.41z" class="cls-1"/></symbol></svg>