<?xml version="1.0" encoding="UTF-8"?><!DOCTYPE svg PUBLIC "-//W3C//DTD SVG 1.1//EN" "http://www.w3.org/Graphics/SVG/1.1/DTD/svg11.dtd"><svg xmlns="http://www.w3.org/2000/svg"><defs><style>.cls-1{fill:#a2a2a2;fill-rule:evenodd}</style><style>.cls-1{fill:#323232;fill-opacity:.43;fill-rule:evenodd}</style><style>.cls-1{fill:#322c59;fill-rule:evenodd}</style></defs><symbol id="icon-close" viewBox="0 0 37.219 37.91"><path d="M21.785 18.94l14.85 14.85a2 2 0 1 1-2.83 2.827l-14.848-14.85L3.4 37.326a2 2 0 0 1-2.828-2.83L16.13 18.94.57 3.384a2 2 0 0 1 2.83-2.83l15.555 15.558 14.85-14.85a2 2 0 0 1 2.828 2.83L21.785 18.94z" class="cls-1"/></symbol><symbol id="icon-menu" viewBox="0 0 51 36"><path d="M49 4H2a2 2 0 0 1 0-4h47a2 2 0 0 1 0 4zM2 16h37a2 2 0 0 1 0 4H2a2 2 0 0 1 0-4zm0 16h47a2 2 0 0 1 0 4H2a2 2 0 0 1 0-4z" class="cls-1"/></symbol><symbol id="icon-search" viewBox="0 0 30 30"><path d="M29.357 26.06l-7.05-7.4a12.11 12.11 0 0 0 1.905-6.532c0-6.704-5.42-12.137-12.105-12.137C5.42-.01.002 5.425.002 12.13c0 6.7 5.42 12.136 12.105 12.136 2.615 0 5.032-.834 7.012-2.245l6.894 7.24c.88.926 2.344.962 3.267.077.923-.883.958-2.35.077-3.276zM3.717 12.13c0-4.646 3.756-8.41 8.39-8.41s8.39 3.764 8.39 8.41c0 4.644-3.756 8.41-8.39 8.41s-8.39-3.766-8.39-8.41z" class="cls-1"/></symbol></svg>