<svg xmlns="http://www.w3.org/2000/svg" xmlns:xlink="http://www.w3.org/1999/xlink" preserveAspectRatio="xMidYMid" width="30" height="30" viewBox="0 0 30 30">
  <defs>
    <style>
      .cls-1 {
        fill: #322c59;
        fill-rule: evenodd;
      }
    </style>
  </defs>
  <path d="M29.357,26.061 L22.308,18.659 C23.511,16.772 24.212,14.532 24.212,12.128 C24.212,5.424 18.793,-0.009 12.107,-0.009 C5.421,-0.009 0.002,5.424 0.002,12.128 C0.002,18.829 5.421,24.264 12.107,24.264 C14.722,24.264 17.139,23.430 19.119,22.019 L26.014,29.260 C26.895,30.186 28.358,30.222 29.281,29.337 C30.203,28.454 30.238,26.987 29.357,26.061 ZM3.718,12.128 C3.718,7.482 7.473,3.717 12.107,3.717 C16.741,3.717 20.496,7.482 20.496,12.128 C20.496,16.772 16.741,20.538 12.107,20.538 C7.473,20.538 3.718,16.772 3.718,12.128 Z" class="cls-1"/>
</svg>
