<svg xmlns="http://www.w3.org/2000/svg" xmlns:xlink="http://www.w3.org/1999/xlink" preserveAspectRatio="xMidYMid" width="37.219" height="37.91" viewBox="0 0 37.219 37.91">
  <defs>
    <style>
      .cls-1 {
        fill: #a2a2a2;
        fill-rule: evenodd;
      }
    </style>
  </defs>
  <path d="M21.785,18.940 L36.635,33.789 C37.416,34.570 37.416,35.837 36.635,36.617 C35.854,37.399 34.587,37.399 33.806,36.617 L18.957,21.768 L3.401,37.325 C2.620,38.106 1.353,38.106 0.572,37.325 C-0.209,36.544 -0.209,35.277 0.572,34.496 L16.129,18.940 L0.572,3.384 C-0.209,2.603 -0.209,1.336 0.572,0.555 C1.353,-0.226 2.620,-0.226 3.401,0.555 L18.957,16.112 L33.806,1.262 C34.587,0.481 35.854,0.481 36.635,1.262 C37.416,2.043 37.416,3.310 36.635,4.091 L21.785,18.940 Z" class="cls-1"/>
</svg>
